<svg width="94" height="94" viewBox="0 0 94 94" fill="none" xmlns="http://www.w3.org/2000/svg">
<path d="M46.5418 0C22.7398 1.69615e-06 24.2262 10.322 24.2262 10.322L24.2527 21.0155H46.9664V24.2262H15.2309C15.2309 24.2262 0 22.4988 0 46.5153C-1.69982e-06 70.5318 13.2939 69.6801 13.2939 69.6801H21.2278V58.5355C21.2278 58.5355 20.8001 45.2416 34.3094 45.2416H56.8373C56.8373 45.2416 69.4944 45.4462 69.4944 33.0092V12.4448C69.4944 12.4448 71.416 0 46.5418 0ZM34.0175 7.1909C36.2773 7.1909 38.1038 9.0174 38.1038 11.2772C38.1038 13.5371 36.2773 15.3636 34.0175 15.3636C31.7576 15.3636 29.9311 13.5371 29.9311 11.2772C29.9311 9.0174 31.7576 7.1909 34.0175 7.1909Z" fill="url(#paint0_linear_9_31)"/>
<path d="M47.2178 93.2714C71.0198 93.2714 69.5335 82.9494 69.5335 82.9494L69.507 72.2559H46.7933V69.0452H78.5288C78.5288 69.0452 93.7597 70.7725 93.7597 46.756C93.7597 22.7396 80.4658 23.5913 80.4658 23.5913H72.5319V34.7358C72.5319 34.7358 72.9596 48.0297 59.4503 48.0297H36.9224C36.9224 48.0297 24.2653 47.8251 24.2653 60.2622V80.8266C24.2653 80.8266 22.3436 93.2714 47.2178 93.2714ZM59.7422 86.0805C57.4823 86.0805 55.6558 84.254 55.6558 81.9941C55.6558 79.7343 57.4823 77.9078 59.7422 77.9078C62.002 77.9078 63.8285 79.7343 63.8285 81.9941C63.8285 84.254 62.002 86.0805 59.7422 86.0805Z" fill="url(#paint1_linear_9_31)"/>
<defs>
<linearGradient id="paint0_linear_9_31" x1="2306.68" y1="2139.33" x2="14201.3" y2="13869.3" gradientUnits="userSpaceOnUse">
<stop stop-color="#387EB8"/>
<stop offset="1" stop-color="#366994"/>
</linearGradient>
<linearGradient id="paint1_linear_9_31" x1="3428.81" y1="3680.38" x2="16202.4" y2="15708.5" gradientUnits="userSpaceOnUse">
<stop stop-color="#FFE052"/>
<stop offset="1" stop-color="#FFC331"/>
</linearGradient>
</defs>
</svg>
