<svg width="94" height="94" viewBox="0 0 94 94" fill="none" xmlns="http://www.w3.org/2000/svg">
<path d="M79.6957 0H14.0639C6.29664 0 0 6.29664 0 14.0639V79.6957C0 87.463 6.29664 93.7597 14.0639 93.7597H79.6957C87.463 93.7597 93.7597 87.463 93.7597 79.6957V14.0639C93.7597 6.29664 87.463 0 79.6957 0Z" fill="#25D366"/>
<path d="M22.5243 71.9678L25.088 60.0648C21.7929 54.8674 20.5074 48.6463 21.4729 42.5686C22.4383 36.4909 25.5883 30.9743 30.3318 27.0538C35.0753 23.1334 41.0863 21.0786 47.2371 21.2748C53.3879 21.4711 59.2557 23.905 63.7396 28.1199C68.2235 32.3347 71.0153 38.0409 71.5913 44.1678C72.1673 50.2947 70.4879 56.4212 66.868 61.3979C63.2482 66.3747 57.9369 69.8595 51.9304 71.1987C45.924 72.5378 39.6353 71.6393 34.2443 68.6716L22.5243 71.9678Z" fill="#25D366" stroke="white" stroke-width="4.76123"/>
<path d="M56.4023 49.993C55.8529 49.6267 55.3035 49.4436 54.7542 50.1761L52.5567 53.1061C52.0073 53.4723 51.6411 53.6555 50.9086 53.2892C48.1617 51.8242 44.3161 50.1761 41.0198 44.6824C40.8367 43.9499 41.203 43.5836 41.5692 43.2174L43.2173 40.6536C43.5836 40.2874 43.4005 39.9211 43.2173 39.5549L41.0198 34.2443C40.4705 32.7793 39.9211 32.9624 39.3717 32.9624H37.9067C37.5405 32.9624 36.808 33.1455 36.0755 33.878C32.0468 37.9068 33.6949 43.5836 36.6249 47.2461C37.1742 47.9786 40.8367 54.5711 48.7111 58.0504C54.571 60.6142 55.8529 60.2479 57.501 59.8817C59.5154 59.6986 61.5298 58.0504 62.4454 56.4023C62.6285 55.8529 63.5441 53.4723 62.8116 53.1061" fill="white"/>
</svg>
