<svg width="94" height="94" viewBox="0 0 94 94" fill="none" xmlns="http://www.w3.org/2000/svg">
<path d="M79.6957 0H14.0639C6.29664 0 0 6.29664 0 14.0639V79.6957C0 87.463 6.29664 93.7597 14.0639 93.7597H79.6957C87.463 93.7597 93.7597 87.463 93.7597 79.6957V14.0639C93.7597 6.29664 87.463 0 79.6957 0Z" fill="#1DA1F2"/>
<path d="M80.0253 27.835C77.8544 29.275 75.3055 30.0397 72.7004 30.0325C75.4856 28.3917 77.571 25.7849 78.5603 22.7075C76.2516 24.6593 73.3423 25.7583 70.3197 25.8206C68.3269 23.7796 65.7259 22.4399 62.9071 22.0026C60.0882 21.5652 57.2036 22.0539 54.686 23.3952C52.1685 24.7365 50.1539 26.8582 48.9445 29.4417C47.7351 32.0252 47.3962 34.9312 47.9786 37.7237C42.8499 37.4529 37.8355 36.1065 33.2609 33.7719C28.6864 31.4373 24.654 28.1667 21.4255 24.1725C19.8457 27.0311 19.3832 30.3744 20.1275 33.5546C20.8718 36.7348 22.77 39.5255 25.4543 41.3862C23.4284 41.4148 21.4232 40.9762 19.5943 40.1043C19.6436 43.0541 20.6807 45.9022 22.5399 48.1929C24.399 50.4837 26.9727 52.0847 29.8493 52.7399C27.9344 53.2399 25.9316 53.3025 23.9893 52.923C24.8272 55.5363 26.4596 57.8229 28.6589 59.4642C30.8583 61.1055 33.515 62.0197 36.2586 62.0792C30.4641 65.5944 23.8078 67.4328 17.0306 67.3898C22.7066 71.0954 29.2996 73.153 36.0757 73.3338C42.8518 73.5145 49.5451 71.8111 55.4105 68.4133C61.2759 65.0156 66.0833 60.0567 69.2976 54.0887C72.5118 48.1207 74.0067 41.3778 73.616 34.6106C76.0325 32.6344 78.1864 30.3574 80.0253 27.835Z" fill="white"/>
</svg>
