<svg width="94" height="107" viewBox="0 0 94 107" fill="none" xmlns="http://www.w3.org/2000/svg">
<path d="M8.52004 95.5982L0 0H93.6522L85.1208 95.583L46.7692 106.216L8.52004 95.5982Z" fill="#1572B6"/>
<path d="M46.8261 98.0906L77.8184 89.4985L85.1093 7.81836H46.8261V98.0906Z" fill="#33A9DC"/>
<path d="M46.8261 42.4524H62.3412L63.4109 30.4462H46.8261V18.7207H46.8678H76.2251L75.9444 21.8655L73.0652 54.1779H46.8261V42.4524Z" fill="white"/>
<path d="M46.8982 72.9019L46.8451 72.917L33.7881 69.3891L32.9535 60.0383H26.6071H21.1825L22.8251 78.4478L46.8413 85.1167L46.8982 85.1015V72.9019Z" fill="#EBEBEB"/>
<path d="M61.3436 53.6804L59.9324 69.3814L46.8564 72.9093V85.109L70.8916 78.4477L71.0699 76.4676L73.107 53.6804H61.3436Z" fill="white"/>
<path d="M46.8678 18.7207V26.0041V30.4158V30.4462H18.584H18.5461L18.3109 27.8098L17.776 21.8655L17.4953 18.7207H46.8678Z" fill="#EBEBEB"/>
<path d="M46.8261 42.4529V49.7363V54.148V54.1784H33.9702H33.9322L33.697 51.5419L33.166 45.5976L32.8853 42.4529H46.8261Z" fill="#EBEBEB"/>
</svg>
