<svg width="94" height="127" viewBox="0 0 94 127" fill="none" xmlns="http://www.w3.org/2000/svg">
<path d="M30.1599 98.2008C30.1599 98.2008 25.3105 101.023 33.6156 101.975C43.6785 103.124 48.8208 102.96 59.9071 100.864C59.9071 100.864 62.8277 102.69 66.8988 104.273C42.0376 114.924 10.6353 103.655 30.1599 98.2008ZM27.1203 84.2997C27.1203 84.2997 21.6799 88.3271 29.992 89.1877C40.7416 90.2975 49.2287 90.3881 63.9223 87.5601C63.9223 87.5601 65.9497 89.62 69.1429 90.7451C39.0906 99.5344 5.6181 91.4369 27.1203 84.2997Z" fill="#0074BD"/>
<path d="M52.7282 60.7151C58.8573 67.7699 51.1209 74.1127 51.1209 74.1127C51.1209 74.1127 66.674 66.0853 59.5327 56.0285C52.8604 46.6543 47.7455 41.9983 75.4378 25.9375C75.4378 25.9385 31.9686 36.7918 52.7282 60.7151Z" fill="#EA2D2E"/>
<path d="M85.6076 108.484C85.6076 108.484 89.1975 111.445 81.6524 113.732C67.3068 118.078 21.9322 119.389 9.33014 113.906C4.80224 111.935 13.2965 109.202 15.9689 108.625C18.7552 108.021 20.3462 108.131 20.3462 108.131C15.3077 104.584 -12.2198 115.1 6.36579 118.116C57.0475 126.331 98.7518 114.416 85.6076 108.484ZM32.4945 69.894C32.4945 69.894 9.41661 75.3761 24.3228 77.3689C30.6177 78.2112 43.1607 78.0179 54.8522 77.0373C64.4045 76.2347 73.9903 74.5206 73.9903 74.5206C73.9903 74.5206 70.6251 75.9641 68.1877 77.6263C44.7476 83.792 -0.523204 80.9202 12.5112 74.6172C23.5303 69.2877 32.4945 69.894 32.4945 69.894ZM73.8946 93.034C97.7203 80.6568 86.7032 68.7617 79.0136 70.364C77.1336 70.7556 76.2903 71.0964 76.2903 71.0964C76.2903 71.0964 76.9902 69.9988 78.3249 69.5267C93.5362 64.181 105.233 85.2976 73.4186 93.6616C73.4186 93.6596 73.7838 93.329 73.8946 93.034Z" fill="#0074BD"/>
<path d="M59.5327 0C59.5327 0 72.7248 13.2002 47.0172 33.4918C26.4011 49.7743 42.3163 59.0559 47.0101 69.6651C34.9747 58.8077 26.1467 49.2484 32.0683 40.3523C40.764 27.2966 64.8541 20.964 59.5327 0Z" fill="#EA2D2E"/>
<path d="M34.8363 126.584C57.7006 128.046 92.8211 125.77 93.6522 114.95C93.6522 114.95 92.054 119.052 74.7542 122.306C55.2368 125.981 31.1599 125.552 16.8844 123.195C16.8844 123.196 19.8091 125.617 34.8363 126.584Z" fill="#0074BD"/>
</svg>
