<svg width="103" height="87" viewBox="0 0 103 87" fill="none" xmlns="http://www.w3.org/2000/svg">
<path d="M95.4016 0.000329457H7.59836C5.60616 -0.0167957 3.68729 0.634315 2.26278 1.81079C0.838275 2.98727 0.0244931 4.59302 0 6.27569V80.7386C0.0289226 82.4188 0.844652 84.0209 2.26868 85.1943C3.6927 86.3677 5.60905 87.0168 7.59836 86.9997H95.4016C97.394 87.013 99.3115 86.3597 100.735 85.1825C102.159 84.0053 102.973 82.3999 103 80.7172V6.2543C102.964 4.57656 102.146 2.97847 100.724 1.80739C99.3008 0.636313 97.3882 -0.0130924 95.4016 0.000329457Z" fill="#0076B2"/>
<path d="M15.2474 32.6108H30.537V74.1637H15.2474V32.6108ZM22.8964 11.9307C24.65 11.9307 26.3643 12.37 27.8223 13.1931C29.2802 14.0161 30.4165 15.186 31.0872 16.5546C31.7579 17.9232 31.9329 19.429 31.5902 20.8817C31.2475 22.3344 30.4023 23.6685 29.1617 24.7154C27.9211 25.7623 26.3408 26.4748 24.6206 26.763C22.9005 27.0511 21.1178 26.9018 19.4981 26.3339C17.8785 25.7661 16.4946 24.8053 15.5215 23.573C14.5485 22.3408 14.03 20.8924 14.0316 19.4112C14.0339 17.4266 14.9688 15.5239 16.631 14.1212C18.2933 12.7186 20.5468 11.9307 22.8964 11.9307Z" fill="white"/>
<path d="M40.1278 32.6105H54.7842V38.3154H54.9868C57.0299 35.0494 62.0111 31.6051 69.449 31.6051C84.9328 31.5765 87.8033 40.1838 87.8033 51.3439V74.1634H72.5137V53.9468C72.5137 49.1333 72.4124 42.9364 64.5692 42.9364C56.726 42.9364 55.392 48.1848 55.392 53.633V74.1634H40.1278V32.6105Z" fill="white"/>
</svg>
