<svg width="94" height="94" viewBox="0 0 94 94" fill="none" xmlns="http://www.w3.org/2000/svg">
<path d="M0 0H93.7597V93.7597H0V0Z" fill="#F7DF1E"/>
<path d="M24.6528 78.3523L31.828 74.0101C33.2122 76.4643 34.4714 78.5409 37.4918 78.5409C40.387 78.5409 42.2124 77.4083 42.2124 73.0031V43.0447H51.0234V73.1277C51.0234 82.2536 45.674 86.4075 37.8695 86.4075C30.821 86.4075 26.7295 82.757 24.6527 78.3516" fill="black"/>
<path d="M55.8093 77.4083L62.9836 73.2544C64.8722 76.3387 67.3267 78.6043 71.6691 78.6043C75.32 78.6043 77.648 76.7789 77.648 74.2614C77.648 71.2404 75.2566 70.1704 71.2285 68.4087L69.0263 67.464C62.6693 64.7582 58.4523 61.3596 58.4523 54.1846C58.4523 47.5762 63.4872 42.541 71.3547 42.541C76.9561 42.541 80.9841 44.4923 83.8789 49.5903L77.0187 53.9956C75.5081 51.2895 73.8722 50.2198 71.3548 50.2198C68.7744 50.2198 67.1379 51.8561 67.1379 53.9956C67.1379 56.639 68.7744 57.7092 72.5502 59.3457L74.7528 60.2897C82.2424 63.4997 86.4594 66.7721 86.4594 74.1355C86.4594 82.0661 80.2287 86.4083 71.8582 86.4083C63.6764 86.4083 58.3894 82.5064 55.8093 77.4083Z" fill="black"/>
</svg>
