<svg width="94" height="106" viewBox="0 0 94 106" fill="none" xmlns="http://www.w3.org/2000/svg">
<path d="M93.7549 30.9812C93.7542 29.2093 93.3752 27.6436 92.6089 26.2998C91.8561 24.9784 90.7288 23.8709 89.2166 22.9953C76.7346 15.7981 64.2405 8.62289 51.7626 1.41837C48.3986 -0.523721 45.1369 -0.452919 41.7979 1.51705C36.8297 4.44707 11.9556 18.698 4.54341 22.9912C1.49087 24.7583 0.00550272 27.4627 0.00476902 30.9779C0 45.4518 0.00476902 59.9254 0 74.3998C0.000733695 76.1328 0.363546 77.668 1.09614 78.9916C1.84928 80.353 2.99238 81.4909 4.53937 82.3864C11.9519 86.6796 36.8293 100.929 41.7964 103.86C45.1369 105.831 48.3986 105.902 51.7637 103.959C64.242 96.754 76.7368 89.5792 89.2206 82.382C90.7676 81.4869 91.9108 80.3482 92.6639 78.9879C93.3954 77.6644 93.7589 76.1291 93.7597 74.3957C93.7597 74.3957 93.7597 45.4555 93.7549 30.9812Z" fill="#5C8DBC"/>
<path d="M47.0233 52.5479L1.09615 78.9917C1.84928 80.3531 2.99238 81.491 4.53938 82.3865C11.9519 86.6797 36.8293 100.93 41.7964 103.86C45.1369 105.831 48.3986 105.902 51.7637 103.959C64.242 96.7541 76.7368 89.5793 89.2207 82.3821C90.7677 81.487 91.9108 80.3483 92.6639 78.988L47.0233 52.5479Z" fill="#1A4674"/>
<path d="M33.4202 60.3808C36.0927 65.0463 41.1167 68.1932 46.8798 68.1932C52.6786 68.1932 57.7312 65.0064 60.3901 60.2909L47.0233 52.5479L33.4202 60.3808Z" fill="#1A4674"/>
<path d="M93.7549 30.9811C93.7542 29.2093 93.3752 27.6436 92.6089 26.2998L47.0233 52.5478L92.6639 78.9879C93.3954 77.6643 93.7589 76.1291 93.7597 74.3957C93.7597 74.3957 93.7597 45.4555 93.7549 30.9811Z" fill="#1B598E"/>
<path d="M91.2453 54.4378H87.6788V58.005H84.1116V54.4378H80.5454V50.8717H84.1116V47.3052H87.6788V50.8717H91.2453V54.4378Z" fill="white"/>
<path d="M78.2314 54.4378H74.6652V58.005H71.0987V54.4378H67.5323V50.8717H71.0987V47.3052H74.6652V50.8717H78.2314V54.4378Z" fill="white"/>
<path d="M60.3901 60.2907C57.7312 65.0062 52.6786 68.193 46.8798 68.193C41.1167 68.193 36.0927 65.0462 33.4202 60.3806C32.1219 58.1135 31.3754 55.4887 31.3754 52.6886C31.3754 44.126 38.3172 37.1845 46.8798 37.1845C52.606 37.1845 57.6035 40.292 60.2892 44.9099L73.8409 37.1063C68.4545 27.8082 58.3981 21.5527 46.8798 21.5527C29.6835 21.5527 15.7436 35.4929 15.7436 52.6886C15.7436 58.3299 17.2444 63.6203 19.8674 68.1835C25.2402 77.5308 35.3252 83.8248 46.8798 83.8248C58.4557 83.8248 68.5565 77.5054 73.9216 68.1306L60.3901 60.2907Z" fill="white"/>
</svg>
