<svg width="94" height="107" viewBox="0 0 94 107" fill="none" xmlns="http://www.w3.org/2000/svg">
<path d="M8.52315 95.5905L0 0H93.6522L85.1177 95.5753L46.7692 106.207L8.52315 95.5905Z" fill="#E44F26"/>
<path d="M46.8261 98.0828L77.8159 89.4914L85.1063 7.81787H46.8261V98.0828Z" fill="#F1662A"/>
<path d="M46.8261 43.2676H31.3122L30.2426 31.2624H46.8261V19.5378H46.7844H17.4294L17.7101 22.6861L20.5891 54.9921H46.8261V43.2676Z" fill="#EBEBEB"/>
<path d="M46.8261 73.7154L46.773 73.7305L33.7171 70.2067L32.8826 60.8567H26.5367H21.1125L22.7549 79.2609L46.773 85.9292L46.8261 85.914V73.7154Z" fill="#EBEBEB"/>
<path d="M46.7844 43.2681V54.9926H61.221L59.863 70.1992L46.7844 73.7268V85.9255L70.8214 79.261L70.9959 77.281L73.7497 46.4164L74.0379 43.2681H70.8783H46.7844Z" fill="white"/>
<path d="M46.7844 19.5378V26.8206V31.2358V31.2624H75.0659H75.1038L75.339 28.63L75.8738 22.6861L76.1545 19.5378H46.7844Z" fill="white"/>
</svg>
